<svg xmlns="http://www.w3.org/2000/svg" width="1280" height="320" viewBox="0 0 1280 320">
  <defs>
    <linearGradient id="bg" x1="0" y1="0" x2="1" y2="1">
      <stop offset="0%" stop-color="#010409"/>
      <stop offset="100%" stop-color="#0d1117"/>
    </linearGradient>
    <radialGradient id="glow" cx="78%" cy="42%" r="55%">
      <stop offset="0%" stop-color="#3fb950" stop-opacity="0.35"/>
      <stop offset="100%" stop-color="#3fb950" stop-opacity="0"/>
    </radialGradient>
    <linearGradient id="line" x1="0" y1="0" x2="1" y2="0">
      <stop offset="0%" stop-color="#3fb950"/>
      <stop offset="100%" stop-color="#39d0d8"/>
    </linearGradient>
  </defs>
  <rect width="1280" height="320" fill="url(#bg)"/>
  <rect width="1280" height="320" fill="url(#glow)"/>
  <g stroke="url(#line)" stroke-width="1.2" opacity="0.5" fill="none">
    <path d="M120 250 L120 90 L320 90 L320 200 L520 200 L520 120 L720 120"/>
    <path d="M120 250 L300 250 L300 160 L480 160 L480 230 L700 230 L700 100 L900 100"/>
    <circle cx="120" cy="250" r="4" fill="#3fb950"/>
    <circle cx="320" cy="90" r="4" fill="#39d0d8"/>
    <circle cx="520" cy="200" r="4" fill="#3fb950"/>
    <circle cx="720" cy="120" r="4" fill="#39d0d8"/>
    <circle cx="900" cy="100" r="4" fill="#3fb950"/>
  </g>
  <g font-family="ui-monospace, 'SF Mono', Menlo, Consolas, monospace" fill="#c9d1d9">
    <text x="100" y="285" font-size="20" fill="#3fb950">&gt; ./hontaa --build</text>
  </g>
  <g font-family="ui-monospace, monospace" fill="#e6edf3">
    <text x="980" y="150" font-size="56" font-weight="700">Hontaa</text>
    <text x="982" y="195" font-size="22" fill="#8b949e">dev · automator · builder</text>
  </g>
</svg>
